HIERARCHY
ROOT Hips
{
	OFFSET 0.00000 0.00000 0.00000
	CHANNELS 6 Xposition Yposition Zposition Zrotation Yrotation Xrotation 
	JOINT LHipJoint
	{
		OFFSET 0 0 0
		CHANNELS 3 Zrotation Yrotation Xrotation
		JOINT LeftUpLeg
		{
			OFFSET 1.53794 -1.55850 0.93568
			CHANNELS 3 Zrotation Yrotation Xrotation
			JOINT LeftLeg
			{
				OFFSET 2.28545 -6.27922 0.00000
				CHANNELS 3 Zrotation Yrotation Xrotation
				JOINT LeftFoot
				{
					OFFSET 2.37329 -6.52057 0.00000
					CHANNELS 3 Zrotation Yrotation Xrotation
					JOINT LeftToeBase
					{
						OFFSET 0.14846 -0.40788 2.09160
						CHANNELS 3 Zrotation Yrotation Xrotation
						End Site
						{
							OFFSET 0.00000 -0.00000 1.07536
						}
					}
				}
			}
		}
	}
	JOINT RHipJoint
	{
		OFFSET 0 0 0
		CHANNELS 3 Zrotation Yrotation Xrotation
		JOINT RightUpLeg
		{
			OFFSET -1.78290 -1.55850 0.93568
			CHANNELS 3 Zrotation Yrotation Xrotation
			JOINT RightLeg
			{
				OFFSET -2.24144 -6.15831 0.00000
				CHANNELS 3 Zrotation Yrotation Xrotation
				JOINT RightFoot
				{
					OFFSET -2.35091 -6.45907 0.00000
					CHANNELS 3 Zrotation Yrotation Xrotation
					JOINT RightToeBase
					{
						OFFSET -0.14428 -0.39641 2.07944
						CHANNELS 3 Zrotation Yrotation Xrotation
						End Site
						{
							OFFSET -0.00000 -0.00000 1.06864
						}
					}
				}
			}
		}
	}
	JOINT LowerBack
	{
		OFFSET 0 0 0
		CHANNELS 3 Zrotation Yrotation Xrotation
		JOINT Spine
		{
			OFFSET -0.08841 2.11430 -0.15818
			CHANNELS 3 Zrotation Yrotation Xrotation
			JOINT Spine1
			{
				OFFSET -0.00033 2.12605 -0.08097
				CHANNELS 3 Zrotation Yrotation Xrotation
				JOINT Neck
				{
					OFFSET 0 0 0
					CHANNELS 3 Zrotation Yrotation Xrotation
					JOINT Neck1
					{
						OFFSET 0.04431 1.59447 0.43193
						CHANNELS 3 Zrotation Yrotation Xrotation
						JOINT Head
						{
							OFFSET 0.00455 1.62017 -0.58852
							CHANNELS 3 Zrotation Yrotation Xrotation
							End Site
							{
								OFFSET -0.00920 1.72955 -0.25850
							}
						}
					}
				}
				JOINT LeftShoulder
				{
					OFFSET 0 0 0
					CHANNELS 3 Zrotation Yrotation Xrotation
					JOINT LeftArm
					{
						OFFSET 2.86490 1.49927 -0.33774
						CHANNELS 3 Zrotation Yrotation Xrotation
						JOINT LeftForeArm
						{
							OFFSET 4.87408 -0.00000 0.00000
							CHANNELS 3 Zrotation Yrotation Xrotation
							JOINT LeftHand
							{
								OFFSET 2.76729 -0.00000 0.00000
								CHANNELS 3 Zrotation Yrotation Xrotation
								JOINT LeftFingerBase
								{
									OFFSET 0 0 0
									CHANNELS 3 Zrotation Yrotation Xrotation
									JOINT LeftHandIndex1
									{
										OFFSET 0.98922 -0.00000 0.00000
										CHANNELS 3 Zrotation Yrotation Xrotation
										End Site
										{
											OFFSET 0.79753 -0.00000 0.00000
										}
									}
								}
								JOINT LThumb
								{
									OFFSET 0 0 0
									CHANNELS 3 Zrotation Yrotation Xrotation
									End Site
									{
										OFFSET 0.80972 -0.00000 0.80972
									}
								}
							}
						}
					}
				}
				JOINT RightShoulder
				{
					OFFSET 0 0 0
					CHANNELS 3 Zrotation Yrotation Xrotation
					JOINT RightArm
					{
						OFFSET -2.94414 1.45463 -0.25291
						CHANNELS 3 Zrotation Yrotation Xrotation
						JOINT RightForeArm
						{
							OFFSET -4.71404 -0.00000 0.00000
							CHANNELS 3 Zrotation Yrotation Xrotation
							JOINT RightHand
							{
								OFFSET -2.83468 -0.00000 0.00000
								CHANNELS 3 Zrotation Yrotation Xrotation
								JOINT RightFingerBase
								{
									OFFSET 0 0 0
									CHANNELS 3 Zrotation Yrotation Xrotation
									JOINT RightHandIndex1
									{
										OFFSET -0.86820 -0.00000 0.00000
										CHANNELS 3 Zrotation Yrotation Xrotation
										End Site
										{
											OFFSET -0.69996 -0.00000 0.00000
										}
									}
								}
								JOINT RThumb
								{
									OFFSET 0 0 0
									CHANNELS 3 Zrotation Yrotation Xrotation
									End Site
									{
										OFFSET -0.71065 -0.00000 0.71065
									}
								}
							}
						}
					}
				}
			}
		}
	}
}
MOTION
Frames: 5
Frame Time: .0083333
-5.4915 16.4699 -0.8432 172.1850 36.8150 -173.0860 0.0000 0.0000 0.0000 -15.3349 -18.4726 -28.9237 2.3349 9.5313 27.4720 0.0430 12.9247 9.6141 0.3992 -4.0568 -11.2365 0.0000 0.0000 0.0000 25.8584 -0.6761 3.7437 -5.1651 -13.5673 41.5312 0.0011 -21.7147 15.2893 -0.0751 1.7684 -4.8661 -3.9812 4.0581 -5.4107 -3.1988 5.8264 -1.1254 -0.6740 2.9469 1.8052 -2.2930 -5.8777 -31.6481 3.5082 -7.1652 42.9836 0.7637 -1.4221 25.5349 0.0000 -0.0000 0.0000 -64.0830 30.6429 51.1829 111.0330 -58.2606 -78.1087 -0.0000 -0.0000 18.7331 14.1836 6.8127 1.7172 -7.1250 0.0000 -0.0000 -10.6269 36.8194 2.1685 0.0000 -0.0000 0.0000 75.4655 -16.2067 46.6226 -77.6992 59.4205 -49.3679 0.0000 0.0000 10.0972 -8.6494 -2.1020 0.3197 7.1250 -0.0000 -0.0000 14.3293 -31.8835 4.7287
-5.3564 16.3506 -1.1022 172.0080 37.0781 -173.6520 0.0000 0.0000 0.0000 -16.1969 -17.7210 -28.0972 2.5666 9.9580 28.8407 -0.0841 12.9672 7.9737 0.4330 -4.2229 -11.7045 0.0000 0.0000 0.0000 25.3957 -0.9007 2.5450 -6.0218 -14.4494 45.0691 0.1703 -21.6895 13.9458 -0.0937 1.9737 -5.4331 -4.1521 3.8098 -5.1665 -3.1198 5.4885 -0.9731 -0.5326 2.7731 1.8071 -2.1601 -5.7550 -31.5778 3.5608 -7.0872 42.9932 0.7937 -1.3700 25.5039 0.0000 -0.0000 0.0000 -64.0909 30.1179 51.1131 110.8684 -58.2888 -77.9687 -0.0000 -0.0000 18.5882 14.3017 6.9933 1.7778 -7.1250 0.0000 -0.0000 -10.5587 37.0095 2.1044 0.0000 -0.0000 0.0000 75.9643 -16.4496 45.7420 -75.6802 59.2108 -47.6315 0.0000 0.0000 10.4693 -8.8158 -2.5550 0.3961 7.1250 -0.0000 -0.0000 14.2717 -32.3329 4.5491
-5.2222 16.2265 -1.3583 171.7320 37.3350 -174.2810 0.0000 0.0000 0.0000 -17.0666 -17.0818 -27.2275 2.8392 10.4301 30.3811 -0.1981 13.0853 6.3881 0.4967 -4.5186 -12.5403 0.0000 0.0000 0.0000 24.8397 -1.0840 1.2769 -6.9409 -15.2819 48.6506 0.3289 -21.7006 12.6448 -0.1129 2.1662 -5.9652 -4.4011 3.5534 -4.8898 -3.0629 5.1441 -0.8086 -0.3715 2.5962 1.8017 -2.0202 -5.6414 -31.5052 3.6165 -7.0324 42.9939 0.8160 -1.3248 25.4637 0.0000 -0.0000 0.0000 -64.1051 29.4814 51.0711 110.5585 -58.3412 -77.7050 -0.0000 -0.0000 18.4294 14.4225 7.2085 1.8483 -7.1250 0.0000 -0.0000 -10.4943 37.2349 2.0324 0.0000 -0.0000 0.0000 76.4979 -16.6708 44.8240 -73.5136 58.9477 -45.7728 0.0000 0.0000 10.8369 -9.0435 -2.8552 0.4542 7.1250 -0.0000 -0.0000 14.1412 -32.6354 4.3987
-5.0883 16.1008 -1.6114 171.3420 37.6042 -174.9820 0.0000 0.0000 0.0000 -17.9574 -16.5722 -26.2964 3.1379 10.9150 31.9937 -0.3281 13.4648 4.5934 0.5763 -4.8613 -13.5133 0.0000 0.0000 0.0000 24.1726 -1.2041 -0.0573 -7.9151 -16.0564 52.2563 0.4677 -21.6515 11.3874 -0.1299 2.3231 -6.3996 -4.7384 3.2930 -4.5770 -3.0302 4.7984 -0.6353 -0.1865 2.4190 1.7835 -1.9020 -5.5395 -31.4476 3.6778 -6.9922 42.9764 0.8391 -1.2901 25.4146 -0.0000 -0.0000 0.0000 -64.1621 28.7376 51.0452 110.0655 -58.4226 -77.2852 -0.0000 -0.0000 18.2442 14.5432 7.4670 1.9309 -7.1250 0.0000 -0.0000 -10.4374 37.5045 1.9512 -0.0000 -0.0000 0.0000 77.0643 -16.8681 43.8847 -71.2331 58.6265 -43.8224 0.0000 0.0000 11.1757 -9.3356 -3.0543 0.5019 7.1250 -0.0000 -0.0000 13.9427 -32.8415 4.2622
-4.9548 15.9757 -1.8608 170.8420 37.9001 -175.7520 0.0000 0.0000 0.0000 -18.8738 -16.1926 -25.2938 3.4422 11.3786 33.5675 -0.4269 13.8444 3.1794 0.6679 -5.2262 -14.5549 0.0000 0.0000 0.0000 23.4087 -1.2219 -1.4680 -8.9402 -16.7691 55.8831 0.5781 -21.4837 10.2004 -0.1451 2.4550 -6.7648 -5.1576 3.0358 -4.2201 -3.0239 4.4592 -0.4545 0.0168 2.2455 1.7484 -1.8040 -5.4348 -31.4008 3.7440 -6.9481 42.9126 0.8659 -1.2627 25.3232 -0.0000 -0.0000 0.0000 -64.2853 27.8626 51.0144 109.3137 -58.5425 -76.6443 -0.0000 -0.0000 18.0437 14.6587 7.7451 2.0189 -7.1250 0.0000 -0.0000 -10.3887 37.7942 1.8671 -0.0000 -0.0000 0.0000 77.6599 -17.0514 42.9227 -68.8852 58.2465 -41.8217 0.0000 0.0000 11.5465 -9.5757 -3.2621 0.5500 7.1250 -0.0000 -0.0000 13.7862 -33.0547 4.1387
